<?xml version="1.0" encoding="utf-8"?>
<!-- Generator: Adobe Illustrator 24.1.1, SVG Export Plug-In . SVG Version: 6.00 Build 0)  -->
<svg version="1.1" id="Camada_1" xmlns="http://www.w3.org/2000/svg" xmlns:xlink="http://www.w3.org/1999/xlink" x="0px" y="0px"
	 viewBox="0 0 709.6 223.2" style="enable-background:new 0 0 709.6 223.2;" xml:space="preserve">
<style type="text/css">
	.st0{fill:#F56033;}
	.st1{fill:#303B56;}
	.st2{fill:#FF8536;}
	.st3{fill:#E84327;}
	.st4{fill:none;}
</style>
<g>
	<g>
		<path class="st3" d="M165.6,98.3c-7.3-19.6-25-34.2-46.3-37c0.4,0.9,0.6,2,0.6,3.1c0,2.3-1,4.4-2.5,5.9c8,0.9,15.6,3.8,22.2,8.5
			c8,5.7,14.1,13.5,17.5,22.7c2.6,7.1,0.8,15.1-4.6,20.4l-0.6,0.6c-4.3,4.2-9.1,7.6-14.4,10.3l0.2-0.1c0,0,0.2,2.7,0,5.8
			c-0.2,2.9-0.4,4.3-0.4,4.5c7.6-3.2,14.7-7.8,20.9-13.9l0.6-0.6C166.7,120.6,169.5,108.8,165.6,98.3z"/>
		<path class="st3" d="M134.1,144c0,0,0.5-2.4,0.7-5.3c0.2-3.2,0.1-4.8,0.1-4.8l0.1,0c-7.3,3.3-15.2,5-23.4,5
			c-8.5,0-16.8-1.9-24.3-5.4c-0.1,0-0.1-0.1-0.2-0.1l-1.5-0.7l-8.7-5.4c-1.9-1.5-3.7-3-5.5-4.7l-0.6-0.6c-5.4-5.3-7.3-13.3-4.6-20.4
			c3.4-9.2,9.4-17,17.5-22.7c6.6-4.7,14.1-7.6,22.1-8.5c-1.5-1.5-2.5-3.6-2.5-5.9c0-1.1,0.2-2.1,0.6-3c-21.3,2.9-38.9,17.4-46.2,37
			c-3.9,10.5-1.2,22.3,6.8,30.1l0.4,0.6c2.8,2.8,5.5,5.2,8.7,7.4v0c0,0,1.1,0.8,5.6,3.3c3.2,1.7,5.7,2.7,6.8,3.2l0.1,0
			c8.2,3.4,16.9,5.1,25.6,5.1C119.2,148,126.8,146.7,134.1,144L134.1,144z"/>
	</g>
	<g>
		<path class="st3" d="M64,112.7c0.9-9.8,4.7-18.9,10.9-26.5c3.6-4.4,9-6.9,14.8-6.9c1.8,0,3.5,0.2,5.2,0.7l0.8,0.2
			c5.7,1.6,10.9,4,15.7,7.1l-0.1-0.1c0,0,3.2-2,4.4-2.6c1.1-0.6,4.6-2.2,4.6-2.2c-6.5-4.9-14-8.7-22.2-11l-0.8-0.2
			c-2.5-0.7-5.1-1.1-7.7-1.1c-8.3,0-16.4,3.6-21.8,10.2c-13.4,16.1-17.1,38.7-8.9,58.7c1.5-2,3.9-3.2,6.6-3.2c0.7,0,1.4,0.1,2.1,0.3
			C64.5,128.8,63.2,120.8,64,112.7z"/>
		<path class="st3" d="M122.5,84.2l-8.8,4.8l-0.1,0c6.6,4.7,12.2,10.8,16.3,18c7.5,13.1,9.6,28.3,5.9,42.9l-0.2,0.8
			c-1.9,7.4-7.9,13-15.4,14.2c-2.7,0.5-5.4,0.7-8.1,0.7c-8.4,0-16.6-2.2-23.9-6.3c-5.8-3.3-10.8-7.7-14.8-13
			c-0.8,3.2-3.6,5.6-6.9,6.1c11.1,14.4,28.1,22.4,45.6,22.4c3.2,0,6.4-0.3,9.6-0.8c11-1.9,19.9-10.1,22.7-21l0.2-0.8
			C151.3,126.3,141.9,100.1,122.5,84.2z"/>
	</g>
	<path id="XMLID_305_" class="st3" d="M78.5,151.8l0.2,0.8c2.8,10.9,11.6,19.1,22.7,21c3.2,0.5,6.4,0.8,9.6,0.8
		c17.6,0,34.8-8.1,45.9-22.8c-3.4-0.3-6.2-2.6-7.2-5.7c-4,5.3-9,9.8-14.8,13c-7.3,4.1-15.5,6.3-23.9,6.3c-2.7,0-5.4-0.2-8.1-0.7
		c-7.4-1.3-13.5-6.9-15.4-14.2l-0.2-0.8c-0.6-2.3-1-4.3-1.3-6.6c0,0-1-0.5-2.3-1c-2-0.9-7.2-3.8-7.2-3.8
		C76.7,142.5,77.4,147.3,78.5,151.8"/>
	<path class="st3" d="M155.4,80.2c-5.5-6.6-13.5-10.2-21.8-10.2c-2.6,0-5.2,0.3-7.7,1.1l-0.8,0.2c-25.6,7.1-43.5,28.6-47.7,53.2
		c0,0,0,0,0,0s1.2,1.2,4,2.9c1.6,1,4.4,2.6,4.4,2.6l0,0.2c0.7-8.2,3.2-16.2,7.5-23.5c7.5-13.1,19.7-22.5,34.2-26.6l0.8-0.2
		c1.7-0.5,3.5-0.7,5.2-0.7c5.7,0,11.1,2.5,14.8,6.9c6.2,7.5,10,16.7,10.9,26.5c0.7,7.9-0.5,15.7-3.5,22.9c0.6-0.1,1.2-0.2,1.8-0.2
		c2.8,0,5.2,1.4,6.7,3.5C172.5,118.7,168.7,96.2,155.4,80.2z"/>
	<path id="XMLID_302_" class="st3" d="M157.6,135.1c4.6,0,8.3,3.7,8.3,8.3c0,4.6-3.7,8.3-8.3,8.3c-4.6,0-8.3-3.7-8.3-8.3
		C149.4,138.8,153.1,135.1,157.6,135.1 M157.6,128.3c-8.3,0-15.1,6.8-15.1,15.1c0,8.3,6.8,15.1,15.1,15.1c8.3,0,15.1-6.8,15.1-15.1
		C172.7,135.1,166,128.3,157.6,128.3"/>
	<path id="XMLID_299_" class="st3" d="M111.5,56c4.6,0,8.3,3.7,8.3,8.3c0,4.6-3.7,8.3-8.3,8.3c-4.6,0-8.3-3.7-8.3-8.3
		C103.2,59.8,106.9,56,111.5,56 M111.5,49.2c-8.3,0-15.1,6.8-15.1,15.1c0,8.3,6.8,15.1,15.1,15.1s15.1-6.8,15.1-15.1
		C126.6,56,119.9,49.2,111.5,49.2"/>
	<path id="XMLID_296_" class="st3" d="M65.5,135.9c4.6,0,8.3,3.7,8.3,8.3c0,4.6-3.7,8.3-8.3,8.3c-4.6,0-8.3-3.7-8.3-8.3
		C57.2,139.6,60.9,135.9,65.5,135.9 M65.5,129c-8.3,0-15.1,6.8-15.1,15.1c0,8.3,6.8,15.1,15.1,15.1c8.3,0,15.1-6.8,15.1-15.1
		C80.6,135.8,73.8,129,65.5,129"/>
</g>
<g>
	<g>
		<path class="st1" d="M305.5,117.4v26.8c0,0.2-0.1,0.3-0.3,0.3h-10.5c-0.2,0-0.3-0.1-0.3-0.3v-25.4c0-8.4-4.2-12.5-11.3-12.5
			c-7.9,0-13.2,4.8-13.2,14.3v23.6c0,0.2-0.1,0.3-0.3,0.3h-10.5c-0.2,0-0.3-0.1-0.3-0.3V79.1c0-0.2,0.1-0.3,0.3-0.3h10.5
			c0.2,0,0.3,0.1,0.3,0.3v22.9c0,0.3,0.3,0.4,0.5,0.2c3.6-3.6,9-5.5,15.3-5.5C297.1,96.7,305.5,103.1,305.5,117.4z"/>
		<path class="st1" d="M315.2,120.8c0-14.2,10.6-24.2,25.2-24.2c14.7,0,25.2,10,25.2,24.2c0,14.2-10.5,24.3-25.2,24.3
			C325.9,145.1,315.2,135,315.2,120.8z M354.5,120.8c0-9-6-14.8-14.1-14.8c-8,0-14,5.8-14,14.8s6,14.8,14,14.8
			C348.5,135.6,354.5,129.9,354.5,120.8z"/>
		<path class="st1" d="M454.5,117.4v26.8c0,0.2-0.1,0.3-0.3,0.3h-10.5c-0.2,0-0.3-0.1-0.3-0.3v-25.4c0-8.4-3.9-12.5-10.6-12.5
			c-7.3,0-12.3,4.8-12.3,14.2v23.7c0,0.2-0.1,0.3-0.3,0.3h-10.5c-0.2,0-0.3-0.1-0.3-0.3v-25.4c0-8.4-3.9-12.5-10.6-12.5
			c-7.4,0-12.3,4.8-12.3,14.2v23.7c0,0.2-0.1,0.3-0.3,0.3h-10.5c-0.2,0-0.3-0.1-0.3-0.3V97.5c0-0.2,0.1-0.3,0.3-0.3h9.9
			c0.2,0,0.3,0.1,0.3,0.3v4.9c0,0.3,0.3,0.4,0.5,0.2c3.5-3.9,8.8-6,15-6c6.8,0,12.4,2.5,15.7,7.5c0.1,0.2,0.3,0.2,0.5,0
			c3.8-4.7,10.1-7.6,17.5-7.6C446.5,96.7,454.5,103.1,454.5,117.4z"/>
		<path class="st1" d="M512.3,124.4h-36.5c-0.2,0-0.3,0.2-0.3,0.4c1.5,6.7,7.2,11,15.3,11c5.2,0,9.3-1.6,12.6-4.9
			c0.1-0.1,0.3-0.1,0.4,0l5.6,6.4c0.1,0.1,0.1,0.3,0,0.4c-4.3,4.9-10.8,7.5-18.9,7.5c-13.9,0-23.6-7.9-25.7-19.3
			c-3.1-16.6,11.5-31.3,28.2-28.8c11.6,1.7,19.8,10.9,19.8,24.1c0,0.8-0.1,2-0.2,3C512.5,124.3,512.4,124.4,512.3,124.4z M475.7,117
			h26.1c0.2,0,0.3-0.2,0.3-0.4c-1-6.6-6.2-11.2-13.3-11.2c-7.1,0-12.2,4.4-13.4,11.2C475.4,116.9,475.5,117,475.7,117z"/>
		<path class="st1" d="M569.1,117.4v26.8c0,0.2-0.1,0.3-0.3,0.3h-10.5c-0.2,0-0.3-0.1-0.3-0.3v-25.4c0-8.4-4.2-12.5-11.3-12.5
			c-7.9,0-13.2,4.8-13.2,14.3v23.6c0,0.2-0.1,0.3-0.3,0.3h-10.5c-0.2,0-0.3-0.1-0.3-0.3V97.5c0-0.2,0.1-0.3,0.3-0.3h9.9
			c0.2,0,0.3,0.1,0.3,0.3v5c0,0.3,0.3,0.4,0.5,0.2c3.6-4,9.2-6.1,15.8-6.1C560.6,96.7,569.1,103.1,569.1,117.4z"/>
		<path class="st1" d="M610.6,141.7c0,0.1,0,0.3-0.1,0.4c-2.7,2-6.6,3-10.4,3c-10.4,0-16.3-5.5-16.3-15.9v-22.5
			c0-0.2-0.1-0.3-0.3-0.3h-7.2c-0.2,0-0.3-0.1-0.3-0.3v-8.3c0-0.2,0.1-0.3,0.3-0.3h7.2c0.2,0,0.3-0.1,0.3-0.3V87
			c0-0.2,0.1-0.3,0.3-0.3h10.5c0.2,0,0.3,0.1,0.3,0.3v10.2c0,0.2,0.1,0.3,0.3,0.3h12.1c0.2,0,0.3,0.1,0.3,0.3v8.3
			c0,0.2-0.1,0.3-0.3,0.3h-12.1c-0.2,0-0.3,0.1-0.3,0.3v22.2c0,4.6,2.3,7.1,6.6,7.1c2.2,0,4.3-0.5,5.9-1.7c0.2-0.1,0.4-0.1,0.5,0.1
			L610.6,141.7z"/>
		<path class="st1" d="M658.5,118v26.2c0,0.2-0.1,0.3-0.3,0.3h-9.9c-0.2,0-0.3-0.1-0.3-0.3v-4.5c0-0.3-0.4-0.4-0.5-0.2
			c-2.8,3.6-7.7,5.6-14.4,5.6c-10.8,0-17.6-5.9-17.6-14.2c0-7.9,5.3-14.1,19.7-14.1h12.2v-0.7c0-6.5-3.9-10.3-11.8-10.3
			c-5.2,0-10.5,1.7-14.1,4.5c-0.1,0.1-0.4,0.1-0.4-0.1l-4-7.5c-0.1-0.1,0-0.3,0.1-0.4c5.2-3.9,12.6-5.8,20.3-5.7
			C649.2,96.8,658.5,106.4,658.5,118z M647.5,129.6v-5.1c0-0.2-0.1-0.3-0.3-0.3H636c-7.5,0-9.6,2.8-9.6,6.3c0,4,3.4,6.6,9,6.6
			c5.4,0,10.1-2.5,11.9-7.3C647.4,129.7,647.5,129.7,647.5,129.6z"/>
	</g>
	<g>
		<path class="st1" d="M248.6,102.2c0,14.5-10.7,23.4-28,23.4h-14.8v19h-12.2V78.8h27.1C237.9,78.8,248.6,87.6,248.6,102.2z
			 M236.3,102.2c0-8.3-5.5-13.1-16.3-13.1h-14.3v26.1h14.3C230.8,115.2,236.3,110.4,236.3,102.2z"/>
	</g>
</g>
<rect class="st4" width="709.6" height="243.4"/>
</svg>
